<?xml version="1.0" standalone="no"?>
<!DOCTYPE svg PUBLIC "-//W3C//DTD SVG 20010904//EN"
 "http://www.w3.org/TR/2001/REC-SVG-20010904/DTD/svg10.dtd">
<svg version="1.0" xmlns="http://www.w3.org/2000/svg"
 width="437.000000pt" height="136.000000pt" viewBox="0 0 437.000000 136.000000"
 preserveAspectRatio="xMidYMid meet">

<g transform="translate(0.000000,136.000000) scale(0.100000,-0.100000)"
fill="#000000" stroke="none">
<path d="M708 1111 c5 -33 4 -35 -11 -22 -14 11 -20 11 -32 1 -13 -11 -15 -8
-15 19 0 20 -5 31 -14 31 -16 0 -30 -43 -16 -48 19 -7 10 -19 -12 -18 -25 1
-38 13 -38 35 0 10 3 11 14 2 10 -9 15 -8 20 4 7 20 -13 19 -66 -2 -234 -91
-368 -340 -317 -585 31 -145 145 -289 283 -354 69 -33 89 -38 175 -42 170 -8
285 33 397 143 240 235 188 631 -106 806 -63 37 -116 55 -76 26 13 -10 16 -20
11 -36 -5 -17 -10 -20 -18 -12 -6 6 -20 11 -30 11 -18 0 -18 1 -3 25 9 13 16
26 16 29 0 3 -21 8 -47 11 -27 4 -56 9 -66 12 -17 4 -17 2 -6 -19 7 -14 14
-18 17 -10 5 16 22 16 22 0 0 -7 -5 -20 -10 -28 -8 -13 -11 -12 -24 5 -9 11
-16 14 -16 8 0 -7 -4 -13 -8 -13 -5 0 -7 13 -4 28 3 21 0 29 -11 29 -12 0 -14
-8 -9 -36z m-150 -47 c-5 -27 -44 -30 -58 -5 -6 12 -7 21 -1 21 5 0 11 -7 15
-15 9 -24 38 -6 30 19 -5 16 -3 18 6 10 6 -7 10 -20 8 -30z m406 10 c20 -8 21
-31 2 -49 -12 -12 -15 -12 -20 0 -3 8 -12 15 -21 15 -13 0 -13 3 -3 20 14 22
18 23 42 14z m-478 -21 c18 -24 17 -34 -1 -27 -8 4 -15 1 -15 -6 0 -6 -5 -8
-12 -4 -8 5 -9 2 -5 -9 8 -22 -2 -22 -19 1 -19 25 -17 34 6 27 16 -5 20 -2 20
14 0 26 9 27 26 4z m549 -33 c19 -20 9 -28 -13 -10 -9 7 -9 7 -2 -2 14 -17 12
-38 -4 -38 -24 0 -39 26 -26 49 13 26 22 26 45 1z m-646 -32 c-11 -21 -11 -22
4 -10 10 9 22 10 32 5 14 -8 13 -11 -5 -28 -20 -18 -21 -18 -42 3 -22 21 -22
22 -3 37 27 19 28 19 14 -7z m666 -28 c-10 -11 -20 -18 -23 -15 -7 6 18 35 31
35 5 0 2 -9 -8 -20z m-707 -12 c-3 -7 5 -21 16 -31 20 -18 20 -18 1 -12 -11 4
-28 7 -38 7 -17 -1 -16 8 6 36 12 15 20 16 15 0z m760 -8 c23 -37 -5 -53 -42
-25 -20 15 -20 15 0 30 25 19 27 19 42 -5z m-226 -97 c67 -66 68 -69 68 -120
0 -46 2 -52 23 -55 18 -2 23 -10 25 -47 2 -25 10 -50 19 -56 15 -11 12 -56
-15 -245 l-7 -45 -277 -3 -278 -2 -4 22 c-23 107 -32 238 -16 238 5 0 10 30
12 68 3 61 5 67 26 70 21 3 22 7 22 123 l0 119 167 0 167 0 68 -67z m243 27
c3 -5 1 -10 -4 -10 -6 0 -11 5 -11 10 0 6 2 10 4 10 3 0 8 -4 11 -10z"/>
<path d="M942 1058 c5 -15 28 -23 28 -10 0 5 -7 13 -16 16 -10 4 -14 1 -12 -6z"/>
<path d="M1080 931 c0 -6 5 -13 10 -16 6 -3 10 1 10 9 0 9 -4 16 -10 16 -5 0
-10 -4 -10 -9z"/>
<path d="M505 710 l0 -170 116 0 c90 0 119 3 129 15 8 10 37 15 93 17 l82 3 2
60 c1 33 -1 72 -4 88 -4 26 -7 27 -64 27 l-59 0 0 65 0 65 -147 0 -148 0 0
-170z m235 100 c0 -6 -37 -10 -90 -10 -53 0 -90 4 -90 10 0 6 37 10 90 10 53
0 90 -4 90 -10z m20 -50 c0 -6 -40 -10 -100 -10 -60 0 -100 4 -100 10 0 6 40
10 100 10 60 0 100 -4 100 -10z m120 -50 c0 -6 -60 -10 -160 -10 -100 0 -160
4 -160 10 0 6 60 10 160 10 100 0 160 -4 160 -10z m-52 -52 c-3 -9 -42 -14
-136 -16 -113 -2 -132 0 -132 13 0 13 21 15 136 15 104 0 135 -3 132 -12z
m-193 -53 c0 -5 -17 -11 -37 -13 -30 -3 -38 0 -38 13 0 13 8 16 38 13 20 -2
37 -7 37 -13z m125 0 c0 -11 -12 -15 -44 -15 -43 0 -63 10 -49 24 3 3 26 6 50
6 32 0 43 -4 43 -15z"/>
<path d="M460 595 c0 -30 5 -55 10 -55 6 0 10 25 10 55 0 30 -4 55 -10 55 -5
0 -10 -25 -10 -55z"/>
<path d="M950 610 c0 -22 5 -40 10 -40 6 0 10 18 10 40 0 22 -4 40 -10 40 -5
0 -10 -18 -10 -40z"/>
<path d="M665 1120 c-3 -5 1 -10 9 -10 9 0 16 5 16 10 0 6 -4 10 -9 10 -6 0
-13 -4 -16 -10z"/>
<path d="M870 1090 c0 -5 7 -10 16 -10 8 0 12 5 9 10 -3 6 -10 10 -16 10 -5 0
-9 -4 -9 -10z"/>
</g>
</svg>
